<mxfile host="app.diagrams.net" modified="2021-07-18T05:50:29.938Z" agent="5.0 (Windows NT 10.0; Win64; x64) AppleWebKit/537.36 (KHTML, like Gecko) Chrome/91.0.4472.124 Safari/537.36" etag="b91LKW0i7N9JmMEHvo0M" version="14.9.0" type="github">
  <diagram id="C5RBs43oDa-KdzZeNtuy" name="Page-1">
    <mxGraphModel dx="868" dy="1619" grid="1" gridSize="10" guides="1" tooltips="1" connect="1" arrows="1" fold="1" page="1" pageScale="1" pageWidth="827" pageHeight="1169" math="0" shadow="0">
      <root>
        <mxCell id="WIyWlLk6GJQsqaUBKTNV-0" />
        <mxCell id="WIyWlLk6GJQsqaUBKTNV-1" parent="WIyWlLk6GJQsqaUBKTNV-0" />
        <mxCell id="Cahqb3RmqwUKaGJ3Z0CK-3" style="edgeStyle=orthogonalEdgeStyle;rounded=0;orthogonalLoop=1;jettySize=auto;html=1;entryX=0.5;entryY=0;entryDx=0;entryDy=0;" edge="1" parent="WIyWlLk6GJQsqaUBKTNV-1" source="Cahqb3RmqwUKaGJ3Z0CK-0" target="Cahqb3RmqwUKaGJ3Z0CK-1">
          <mxGeometry relative="1" as="geometry" />
        </mxCell>
        <mxCell id="Cahqb3RmqwUKaGJ3Z0CK-12" style="edgeStyle=orthogonalEdgeStyle;rounded=0;orthogonalLoop=1;jettySize=auto;html=1;" edge="1" parent="WIyWlLk6GJQsqaUBKTNV-1" source="Cahqb3RmqwUKaGJ3Z0CK-0" target="Cahqb3RmqwUKaGJ3Z0CK-10">
          <mxGeometry relative="1" as="geometry" />
        </mxCell>
        <mxCell id="Cahqb3RmqwUKaGJ3Z0CK-0" value="Start" style="rounded=1;whiteSpace=wrap;html=1;" vertex="1" parent="WIyWlLk6GJQsqaUBKTNV-1">
          <mxGeometry x="320" y="-390" width="120" height="50" as="geometry" />
        </mxCell>
        <mxCell id="Cahqb3RmqwUKaGJ3Z0CK-7" style="edgeStyle=orthogonalEdgeStyle;rounded=0;orthogonalLoop=1;jettySize=auto;html=1;entryX=0.9;entryY=0;entryDx=0;entryDy=0;entryPerimeter=0;" edge="1" parent="WIyWlLk6GJQsqaUBKTNV-1" source="Cahqb3RmqwUKaGJ3Z0CK-1" target="Cahqb3RmqwUKaGJ3Z0CK-5">
          <mxGeometry relative="1" as="geometry">
            <mxPoint x="260" y="-100" as="targetPoint" />
            <Array as="points">
              <mxPoint x="260" y="-200" />
              <mxPoint x="260" y="-80" />
            </Array>
          </mxGeometry>
        </mxCell>
        <mxCell id="Cahqb3RmqwUKaGJ3Z0CK-8" style="edgeStyle=orthogonalEdgeStyle;rounded=0;orthogonalLoop=1;jettySize=auto;html=1;entryX=0.608;entryY=0.017;entryDx=0;entryDy=0;entryPerimeter=0;" edge="1" parent="WIyWlLk6GJQsqaUBKTNV-1" source="Cahqb3RmqwUKaGJ3Z0CK-1" target="Cahqb3RmqwUKaGJ3Z0CK-6">
          <mxGeometry relative="1" as="geometry" />
        </mxCell>
        <mxCell id="Cahqb3RmqwUKaGJ3Z0CK-1" value="If age &amp;gt;= 18 then" style="rhombus;whiteSpace=wrap;html=1;" vertex="1" parent="WIyWlLk6GJQsqaUBKTNV-1">
          <mxGeometry x="360" y="-280" width="140" height="160" as="geometry" />
        </mxCell>
        <mxCell id="Cahqb3RmqwUKaGJ3Z0CK-13" style="edgeStyle=orthogonalEdgeStyle;rounded=0;orthogonalLoop=1;jettySize=auto;html=1;" edge="1" parent="WIyWlLk6GJQsqaUBKTNV-1" source="Cahqb3RmqwUKaGJ3Z0CK-5">
          <mxGeometry relative="1" as="geometry">
            <mxPoint x="220" y="130" as="targetPoint" />
          </mxGeometry>
        </mxCell>
        <mxCell id="Cahqb3RmqwUKaGJ3Z0CK-5" value="YES. YOU ARE ELIGBLE" style="rounded=1;whiteSpace=wrap;html=1;" vertex="1" parent="WIyWlLk6GJQsqaUBKTNV-1">
          <mxGeometry x="160" y="-60" width="120" height="60" as="geometry" />
        </mxCell>
        <mxCell id="Cahqb3RmqwUKaGJ3Z0CK-6" value="YOU ARE NOT ELIGIBLE" style="rounded=1;whiteSpace=wrap;html=1;" vertex="1" parent="WIyWlLk6GJQsqaUBKTNV-1">
          <mxGeometry x="550" y="-60" width="120" height="60" as="geometry" />
        </mxCell>
        <mxCell id="Cahqb3RmqwUKaGJ3Z0CK-10" value="Input you name" style="rhombus;whiteSpace=wrap;html=1;" vertex="1" parent="WIyWlLk6GJQsqaUBKTNV-1">
          <mxGeometry x="110" y="-330" width="130" height="120" as="geometry" />
        </mxCell>
        <mxCell id="Cahqb3RmqwUKaGJ3Z0CK-15" style="edgeStyle=orthogonalEdgeStyle;rounded=0;orthogonalLoop=1;jettySize=auto;html=1;" edge="1" parent="WIyWlLk6GJQsqaUBKTNV-1" source="Cahqb3RmqwUKaGJ3Z0CK-14">
          <mxGeometry relative="1" as="geometry">
            <mxPoint x="220" y="290" as="targetPoint" />
          </mxGeometry>
        </mxCell>
        <mxCell id="Cahqb3RmqwUKaGJ3Z0CK-14" value="Input vaccine company" style="rounded=1;whiteSpace=wrap;html=1;" vertex="1" parent="WIyWlLk6GJQsqaUBKTNV-1">
          <mxGeometry x="160" y="130" width="120" height="60" as="geometry" />
        </mxCell>
        <mxCell id="Cahqb3RmqwUKaGJ3Z0CK-16" value="Output vaccine" style="rounded=1;whiteSpace=wrap;html=1;" vertex="1" parent="WIyWlLk6GJQsqaUBKTNV-1">
          <mxGeometry x="160" y="290" width="120" height="60" as="geometry" />
        </mxCell>
      </root>
    </mxGraphModel>
  </diagram>
</mxfile>
